<mxfile host="app.diagrams.net" agent="Mozilla/5.0 (Windows NT 10.0; Win64; x64) AppleWebKit/537.36 (KHTML, like Gecko) Chrome/131.0.0.0 Safari/537.36" version="25.0.3">
  <diagram name="Page-1" id="Z_M5zQfoOIj8aTLM4wot">
    <mxGraphModel dx="1884" dy="1558" grid="1" gridSize="10" guides="1" tooltips="1" connect="1" arrows="1" fold="1" page="1" pageScale="1" pageWidth="850" pageHeight="1100" math="0" shadow="0">
      <root>
        <mxCell id="0" />
        <mxCell id="1" parent="0" />
        <mxCell id="A79jhgo63wWI0AuekGEN-1" value="Program" style="swimlane;fontStyle=1;align=center;verticalAlign=top;childLayout=stackLayout;horizontal=1;startSize=26;horizontalStack=0;resizeParent=1;resizeParentMax=0;resizeLast=0;collapsible=1;marginBottom=0;whiteSpace=wrap;html=1;" parent="1" vertex="1">
          <mxGeometry x="355" width="190" height="60" as="geometry">
            <mxRectangle x="340" y="340" width="90" height="30" as="alternateBounds" />
          </mxGeometry>
        </mxCell>
        <mxCell id="A79jhgo63wWI0AuekGEN-3" value="" style="line;strokeWidth=1;fillColor=none;align=left;verticalAlign=middle;spacingTop=-1;spacingLeft=3;spacingRight=3;rotatable=0;labelPosition=right;points=[];portConstraint=eastwest;strokeColor=inherit;" parent="A79jhgo63wWI0AuekGEN-1" vertex="1">
          <mxGeometry y="26" width="190" height="8" as="geometry" />
        </mxCell>
        <mxCell id="A79jhgo63wWI0AuekGEN-4" value="&lt;div&gt;&lt;div&gt;+ static Main(args: string[]): void&lt;/div&gt;&lt;/div&gt;&lt;div&gt;&lt;br&gt;&lt;/div&gt;" style="text;strokeColor=none;fillColor=none;align=left;verticalAlign=top;spacingLeft=4;spacingRight=4;overflow=hidden;rotatable=0;points=[[0,0.5],[1,0.5]];portConstraint=eastwest;whiteSpace=wrap;html=1;" parent="A79jhgo63wWI0AuekGEN-1" vertex="1">
          <mxGeometry y="34" width="190" height="26" as="geometry" />
        </mxCell>
        <mxCell id="A79jhgo63wWI0AuekGEN-29" value="ImageLoader" style="swimlane;fontStyle=1;align=center;verticalAlign=top;childLayout=stackLayout;horizontal=1;startSize=26;horizontalStack=0;resizeParent=1;resizeParentMax=0;resizeLast=0;collapsible=1;marginBottom=0;whiteSpace=wrap;html=1;" parent="1" vertex="1">
          <mxGeometry x="315" y="-110" width="270" height="60" as="geometry" />
        </mxCell>
        <mxCell id="A79jhgo63wWI0AuekGEN-31" value="" style="line;strokeWidth=1;fillColor=none;align=left;verticalAlign=middle;spacingTop=-1;spacingLeft=3;spacingRight=3;rotatable=0;labelPosition=right;points=[];portConstraint=eastwest;strokeColor=inherit;" parent="A79jhgo63wWI0AuekGEN-29" vertex="1">
          <mxGeometry y="26" width="270" height="8" as="geometry" />
        </mxCell>
        <mxCell id="A79jhgo63wWI0AuekGEN-32" value="&lt;div&gt;+ static LoadImage(&lt;span class=&quot;hljs-built_in&quot;&gt;path&lt;/span&gt;: &lt;span class=&quot;hljs-built_in&quot;&gt;string&lt;/span&gt;): (&lt;span class=&quot;hljs-built_in&quot;&gt;byte&lt;/span&gt;[], int, int)&lt;/div&gt;" style="text;strokeColor=none;fillColor=none;align=left;verticalAlign=top;spacingLeft=4;spacingRight=4;overflow=hidden;rotatable=0;points=[[0,0.5],[1,0.5]];portConstraint=eastwest;whiteSpace=wrap;html=1;" parent="A79jhgo63wWI0AuekGEN-29" vertex="1">
          <mxGeometry y="34" width="270" height="26" as="geometry" />
        </mxCell>
        <mxCell id="A79jhgo63wWI0AuekGEN-33" value="ImageSaver" style="swimlane;fontStyle=1;align=center;verticalAlign=top;childLayout=stackLayout;horizontal=1;startSize=26;horizontalStack=0;resizeParent=1;resizeParentMax=0;resizeLast=0;collapsible=1;marginBottom=0;whiteSpace=wrap;html=1;" parent="1" vertex="1">
          <mxGeometry x="-110" width="390" height="60" as="geometry" />
        </mxCell>
        <mxCell id="A79jhgo63wWI0AuekGEN-35" value="" style="line;strokeWidth=1;fillColor=none;align=left;verticalAlign=middle;spacingTop=-1;spacingLeft=3;spacingRight=3;rotatable=0;labelPosition=right;points=[];portConstraint=eastwest;strokeColor=inherit;" parent="A79jhgo63wWI0AuekGEN-33" vertex="1">
          <mxGeometry y="26" width="390" height="8" as="geometry" />
        </mxCell>
        <mxCell id="A79jhgo63wWI0AuekGEN-36" value="&lt;div&gt;+ &lt;span class=&quot;hljs-built_in&quot;&gt;static&lt;/span&gt; &lt;span class=&quot;hljs-title function_ invoke__&quot;&gt;SaveImage&lt;/span&gt;(&lt;span class=&quot;hljs-attr&quot;&gt;data&lt;/span&gt;: byte[], &lt;span class=&quot;hljs-attr&quot;&gt;width&lt;/span&gt;: &lt;span class=&quot;hljs-keyword&quot;&gt;int&lt;/span&gt;, &lt;span class=&quot;hljs-attr&quot;&gt;height&lt;/span&gt;: &lt;span class=&quot;hljs-keyword&quot;&gt;int&lt;/span&gt;, &lt;span class=&quot;hljs-attr&quot;&gt;path&lt;/span&gt;: &lt;span class=&quot;hljs-keyword&quot;&gt;string&lt;/span&gt;): &lt;span class=&quot;hljs-keyword&quot;&gt;void&lt;/span&gt;&lt;/div&gt;" style="text;strokeColor=none;fillColor=none;align=left;verticalAlign=top;spacingLeft=4;spacingRight=4;overflow=hidden;rotatable=0;points=[[0,0.5],[1,0.5]];portConstraint=eastwest;whiteSpace=wrap;html=1;" parent="A79jhgo63wWI0AuekGEN-33" vertex="1">
          <mxGeometry y="34" width="390" height="26" as="geometry" />
        </mxCell>
        <mxCell id="A79jhgo63wWI0AuekGEN-46" value="EdgeDetectionService" style="swimlane;fontStyle=1;align=center;verticalAlign=top;childLayout=stackLayout;horizontal=1;startSize=26;horizontalStack=0;resizeParent=1;resizeParentMax=0;resizeLast=0;collapsible=1;marginBottom=0;whiteSpace=wrap;html=1;" parent="1" vertex="1">
          <mxGeometry x="280" y="100" width="340" height="100" as="geometry" />
        </mxCell>
        <mxCell id="A79jhgo63wWI0AuekGEN-47" value="- _edgeDetector: IEdgeDetector" style="text;strokeColor=none;fillColor=none;align=left;verticalAlign=top;spacingLeft=4;spacingRight=4;overflow=hidden;rotatable=0;points=[[0,0.5],[1,0.5]];portConstraint=eastwest;whiteSpace=wrap;html=1;" parent="A79jhgo63wWI0AuekGEN-46" vertex="1">
          <mxGeometry y="26" width="340" height="24" as="geometry" />
        </mxCell>
        <mxCell id="A79jhgo63wWI0AuekGEN-48" value="" style="line;strokeWidth=1;fillColor=none;align=left;verticalAlign=middle;spacingTop=-1;spacingLeft=3;spacingRight=3;rotatable=0;labelPosition=right;points=[];portConstraint=eastwest;strokeColor=inherit;" parent="A79jhgo63wWI0AuekGEN-46" vertex="1">
          <mxGeometry y="50" width="340" height="8" as="geometry" />
        </mxCell>
        <mxCell id="A79jhgo63wWI0AuekGEN-49" value="&lt;div&gt;+&amp;nbsp;&lt;span class=&quot;hljs-built_in&quot;&gt;EdgeDetectionService&lt;/span&gt;(edgeDetector: IEdgeDetector)&lt;/div&gt;&lt;div&gt;+ &lt;span class=&quot;hljs-built_in&quot;&gt;DetectEdges&lt;/span&gt;(imageData: &lt;span class=&quot;hljs-type&quot;&gt;byte&lt;/span&gt;[], width: &lt;span class=&quot;hljs-type&quot;&gt;int&lt;/span&gt;, height: &lt;span class=&quot;hljs-type&quot;&gt;int&lt;/span&gt;): &lt;span class=&quot;hljs-type&quot;&gt;byte&lt;/span&gt;[]&lt;/div&gt;" style="text;strokeColor=none;fillColor=none;align=left;verticalAlign=top;spacingLeft=4;spacingRight=4;overflow=hidden;rotatable=0;points=[[0,0.5],[1,0.5]];portConstraint=eastwest;whiteSpace=wrap;html=1;" parent="A79jhgo63wWI0AuekGEN-46" vertex="1">
          <mxGeometry y="58" width="340" height="42" as="geometry" />
        </mxCell>
        <object label="&amp;lt;&amp;lt;interface&amp;gt;&amp;gt; IEdgeDetector" id="A79jhgo63wWI0AuekGEN-50">
          <mxCell style="swimlane;fontStyle=1;align=center;verticalAlign=top;childLayout=stackLayout;horizontal=1;startSize=25;horizontalStack=0;resizeParent=1;resizeParentMax=0;resizeLast=0;collapsible=1;marginBottom=0;whiteSpace=wrap;html=1;" parent="1" vertex="1">
            <mxGeometry x="685" y="120" width="270" height="65" as="geometry" />
          </mxCell>
        </object>
        <mxCell id="A79jhgo63wWI0AuekGEN-52" value="" style="line;strokeWidth=1;fillColor=none;align=left;verticalAlign=middle;spacingTop=-1;spacingLeft=3;spacingRight=3;rotatable=0;labelPosition=right;points=[];portConstraint=eastwest;strokeColor=inherit;" parent="A79jhgo63wWI0AuekGEN-50" vertex="1">
          <mxGeometry y="25" width="270" height="8" as="geometry" />
        </mxCell>
        <mxCell id="A79jhgo63wWI0AuekGEN-53" value="&lt;div&gt;+ Apply(&lt;span class=&quot;hljs-built_in&quot;&gt;input&lt;/span&gt;: &lt;span class=&quot;hljs-built_in&quot;&gt;byte&lt;/span&gt;[], width: int, height: int): &lt;span class=&quot;hljs-built_in&quot;&gt;byte&lt;/span&gt;[]&lt;/div&gt;" style="text;strokeColor=none;fillColor=none;align=left;verticalAlign=top;spacingLeft=4;spacingRight=4;overflow=hidden;rotatable=0;points=[[0,0.5],[1,0.5]];portConstraint=eastwest;whiteSpace=wrap;html=1;" parent="A79jhgo63wWI0AuekGEN-50" vertex="1">
          <mxGeometry y="33" width="270" height="32" as="geometry" />
        </mxCell>
        <mxCell id="A79jhgo63wWI0AuekGEN-54" value="Use" style="endArrow=open;endSize=12;dashed=1;html=1;rounded=0;" parent="1" source="A79jhgo63wWI0AuekGEN-1" target="A79jhgo63wWI0AuekGEN-46" edge="1">
          <mxGeometry width="160" relative="1" as="geometry">
            <mxPoint x="340" y="480" as="sourcePoint" />
            <mxPoint x="410" y="150" as="targetPoint" />
          </mxGeometry>
        </mxCell>
        <mxCell id="A79jhgo63wWI0AuekGEN-56" value="Use" style="endArrow=open;endSize=12;dashed=1;html=1;rounded=0;" parent="1" source="A79jhgo63wWI0AuekGEN-1" target="A79jhgo63wWI0AuekGEN-50" edge="1">
          <mxGeometry width="160" relative="1" as="geometry">
            <mxPoint x="240" y="265" as="sourcePoint" />
            <mxPoint x="500" y="445" as="targetPoint" />
            <Array as="points">
              <mxPoint x="820" y="30" />
            </Array>
          </mxGeometry>
        </mxCell>
        <mxCell id="A79jhgo63wWI0AuekGEN-57" value="" style="endArrow=block;dashed=1;endFill=0;endSize=12;html=1;rounded=0;" parent="1" source="A79jhgo63wWI0AuekGEN-65" target="A79jhgo63wWI0AuekGEN-50" edge="1">
          <mxGeometry width="160" relative="1" as="geometry">
            <mxPoint x="292.77730897009974" y="312.39" as="sourcePoint" />
            <mxPoint x="509.99512562814084" y="217.39" as="targetPoint" />
          </mxGeometry>
        </mxCell>
        <mxCell id="A79jhgo63wWI0AuekGEN-61" value="Implement" style="edgeLabel;html=1;align=center;verticalAlign=middle;resizable=0;points=[];" parent="A79jhgo63wWI0AuekGEN-57" vertex="1" connectable="0">
          <mxGeometry x="-0.15" relative="1" as="geometry">
            <mxPoint as="offset" />
          </mxGeometry>
        </mxCell>
        <mxCell id="A79jhgo63wWI0AuekGEN-58" value="" style="endArrow=block;dashed=1;endFill=0;endSize=12;html=1;rounded=0;" parent="1" source="A79jhgo63wWI0AuekGEN-69" target="A79jhgo63wWI0AuekGEN-50" edge="1">
          <mxGeometry width="160" relative="1" as="geometry">
            <mxPoint x="430.2761224489798" y="312.39" as="sourcePoint" />
            <mxPoint x="564.97" y="209.9974766355141" as="targetPoint" />
          </mxGeometry>
        </mxCell>
        <mxCell id="A79jhgo63wWI0AuekGEN-63" value="Implement" style="edgeLabel;html=1;align=center;verticalAlign=middle;resizable=0;points=[];" parent="A79jhgo63wWI0AuekGEN-58" vertex="1" connectable="0">
          <mxGeometry x="-0.2778" relative="1" as="geometry">
            <mxPoint as="offset" />
          </mxGeometry>
        </mxCell>
        <mxCell id="A79jhgo63wWI0AuekGEN-59" value="Use" style="endArrow=open;endSize=12;dashed=1;html=1;rounded=0;" parent="1" source="A79jhgo63wWI0AuekGEN-1" target="A79jhgo63wWI0AuekGEN-29" edge="1">
          <mxGeometry width="160" relative="1" as="geometry">
            <mxPoint x="340" y="345" as="sourcePoint" />
            <mxPoint x="500" y="345" as="targetPoint" />
            <Array as="points" />
          </mxGeometry>
        </mxCell>
        <mxCell id="A79jhgo63wWI0AuekGEN-60" value="Use" style="endArrow=open;endSize=12;dashed=1;html=1;rounded=0;" parent="1" source="A79jhgo63wWI0AuekGEN-1" target="A79jhgo63wWI0AuekGEN-33" edge="1">
          <mxGeometry width="160" relative="1" as="geometry">
            <mxPoint x="170" as="sourcePoint" />
            <mxPoint x="90" y="90" as="targetPoint" />
            <Array as="points" />
          </mxGeometry>
        </mxCell>
        <mxCell id="A79jhgo63wWI0AuekGEN-65" value="SobelEdgeDetector" style="swimlane;fontStyle=1;align=center;verticalAlign=top;childLayout=stackLayout;horizontal=1;startSize=26;horizontalStack=0;resizeParent=1;resizeParentMax=0;resizeLast=0;collapsible=1;marginBottom=0;whiteSpace=wrap;html=1;" parent="1" vertex="1">
          <mxGeometry x="540" y="250" width="270" height="104" as="geometry" />
        </mxCell>
        <mxCell id="A79jhgo63wWI0AuekGEN-66" value="- Gx: &lt;span class=&quot;hljs-type&quot;&gt;int&lt;/span&gt;[,]&lt;div&gt;- Gy: &lt;span class=&quot;hljs-type&quot;&gt;int&lt;/span&gt;[,]&lt;br&gt;&lt;div&gt;&lt;br&gt;&lt;/div&gt;&lt;/div&gt;" style="text;strokeColor=none;fillColor=none;align=left;verticalAlign=top;spacingLeft=4;spacingRight=4;overflow=hidden;rotatable=0;points=[[0,0.5],[1,0.5]];portConstraint=eastwest;whiteSpace=wrap;html=1;" parent="A79jhgo63wWI0AuekGEN-65" vertex="1">
          <mxGeometry y="26" width="270" height="44" as="geometry" />
        </mxCell>
        <mxCell id="A79jhgo63wWI0AuekGEN-67" value="" style="line;strokeWidth=1;fillColor=none;align=left;verticalAlign=middle;spacingTop=-1;spacingLeft=3;spacingRight=3;rotatable=0;labelPosition=right;points=[];portConstraint=eastwest;strokeColor=inherit;" parent="A79jhgo63wWI0AuekGEN-65" vertex="1">
          <mxGeometry y="70" width="270" height="8" as="geometry" />
        </mxCell>
        <mxCell id="A79jhgo63wWI0AuekGEN-68" value="+ &lt;span class=&quot;hljs-built_in&quot;&gt;Apply&lt;/span&gt;(input: &lt;span class=&quot;hljs-type&quot;&gt;byte&lt;/span&gt;[], width: &lt;span class=&quot;hljs-type&quot;&gt;int&lt;/span&gt;, height: &lt;span class=&quot;hljs-type&quot;&gt;int&lt;/span&gt;): &lt;span class=&quot;hljs-type&quot;&gt;byte&lt;/span&gt;[]" style="text;strokeColor=none;fillColor=none;align=left;verticalAlign=top;spacingLeft=4;spacingRight=4;overflow=hidden;rotatable=0;points=[[0,0.5],[1,0.5]];portConstraint=eastwest;whiteSpace=wrap;html=1;" parent="A79jhgo63wWI0AuekGEN-65" vertex="1">
          <mxGeometry y="78" width="270" height="26" as="geometry" />
        </mxCell>
        <mxCell id="A79jhgo63wWI0AuekGEN-69" value="PrewittEdgeDetector" style="swimlane;fontStyle=1;align=center;verticalAlign=top;childLayout=stackLayout;horizontal=1;startSize=26;horizontalStack=0;resizeParent=1;resizeParentMax=0;resizeLast=0;collapsible=1;marginBottom=0;whiteSpace=wrap;html=1;" parent="1" vertex="1">
          <mxGeometry x="830" y="250" width="270" height="104" as="geometry" />
        </mxCell>
        <mxCell id="A79jhgo63wWI0AuekGEN-70" value="- Gx: &lt;span class=&quot;hljs-type&quot;&gt;int&lt;/span&gt;[,]&lt;div&gt;- Gy: &lt;span class=&quot;hljs-type&quot;&gt;int&lt;/span&gt;[,]&lt;br&gt;&lt;div&gt;&lt;br&gt;&lt;/div&gt;&lt;/div&gt;" style="text;strokeColor=none;fillColor=none;align=left;verticalAlign=top;spacingLeft=4;spacingRight=4;overflow=hidden;rotatable=0;points=[[0,0.5],[1,0.5]];portConstraint=eastwest;whiteSpace=wrap;html=1;" parent="A79jhgo63wWI0AuekGEN-69" vertex="1">
          <mxGeometry y="26" width="270" height="44" as="geometry" />
        </mxCell>
        <mxCell id="A79jhgo63wWI0AuekGEN-71" value="" style="line;strokeWidth=1;fillColor=none;align=left;verticalAlign=middle;spacingTop=-1;spacingLeft=3;spacingRight=3;rotatable=0;labelPosition=right;points=[];portConstraint=eastwest;strokeColor=inherit;" parent="A79jhgo63wWI0AuekGEN-69" vertex="1">
          <mxGeometry y="70" width="270" height="8" as="geometry" />
        </mxCell>
        <mxCell id="A79jhgo63wWI0AuekGEN-72" value="+ &lt;span class=&quot;hljs-built_in&quot;&gt;Apply&lt;/span&gt;(input: &lt;span class=&quot;hljs-type&quot;&gt;byte&lt;/span&gt;[], width: &lt;span class=&quot;hljs-type&quot;&gt;int&lt;/span&gt;, height: &lt;span class=&quot;hljs-type&quot;&gt;int&lt;/span&gt;): &lt;span class=&quot;hljs-type&quot;&gt;byte&lt;/span&gt;[]" style="text;strokeColor=none;fillColor=none;align=left;verticalAlign=top;spacingLeft=4;spacingRight=4;overflow=hidden;rotatable=0;points=[[0,0.5],[1,0.5]];portConstraint=eastwest;whiteSpace=wrap;html=1;" parent="A79jhgo63wWI0AuekGEN-69" vertex="1">
          <mxGeometry y="78" width="270" height="26" as="geometry" />
        </mxCell>
        <mxCell id="A79jhgo63wWI0AuekGEN-77" value="Use" style="endArrow=open;endSize=12;dashed=1;html=1;rounded=0;" parent="1" source="A79jhgo63wWI0AuekGEN-46" target="A79jhgo63wWI0AuekGEN-50" edge="1">
          <mxGeometry width="160" relative="1" as="geometry">
            <mxPoint x="380" y="300" as="sourcePoint" />
            <mxPoint x="540" y="300" as="targetPoint" />
          </mxGeometry>
        </mxCell>
      </root>
    </mxGraphModel>
  </diagram>
</mxfile>
